<svg id="f0-ic" viewBox="0 0 96 100" fill="#161310" style="transform: rotate(0.0030738deg);"><path fill-rule="evenodd" clip-rule="evenodd" d="M90.4885 40.0235C85.981 44.8455 78.5935 48.515 71.0855 50C78.5935 51.485 85.981 55.1545 90.488 59.9765L95.605 65.451L88.2475 66.872C81.7665 68.1235 73.633 66.75 66.686 63.538C71.887 69.153 75.707 76.4635 76.5195 83.014L77.4415 90.4505L70.654 87.276C64.675 84.4795 58.9025 78.587 55.17 71.905C56.0775 79.5045 54.871 87.6645 51.6775 93.4415L48.0525 100L44.4275 93.4415C41.234 87.6645 40.0275 79.5045 40.9355 71.905C37.203 78.587 31.4305 84.479 25.451 87.276L18.6635 90.4505L19.5855 83.014C20.398 76.4635 24.218 69.153 29.4195 63.538C22.472 66.75 14.3385 68.124 7.8575 66.872L0.5 65.451L5.617 59.9765C10.1245 55.154 17.512 51.485 25.0205 50C17.512 48.515 10.1245 44.8455 5.617 40.0235L0.5 34.549L7.8575 33.128C14.3385 31.8765 22.4725 33.25 29.4195 36.462C24.218 30.847 20.398 23.5365 19.5855 16.986L18.6635 9.549L25.4515 12.724C31.43 15.5205 37.203 21.413 40.935 28.095C40.027 20.495 41.234 12.335 44.427 6.5585L48.053 0L51.678 6.5585C54.8715 12.3355 56.078 20.4955 55.17 28.095C58.903 21.413 64.6755 15.521 70.6545 12.724L77.4425 9.549L76.52 16.986C75.708 23.536 71.888 30.847 66.6865 36.462C73.6335 33.25 81.767 31.876 88.248 33.128L95.606 34.549L90.4885 40.0235ZM38.627 59.348C43.766 64.487 52.0985 64.487 57.2375 59.348C62.3765 54.209 62.3765 45.8765 57.2375 40.738C52.0985 35.598 43.7665 35.598 38.6275 40.738C33.488 45.8765 33.4875 54.209 38.627 59.348Z"></path></svg>